<?xml version="1.0" encoding="UTF-8" standalone="no"?> <svg xmlns="http://www.w3.org/2000/svg" viewBox="0 0 32 32"><defs><style>.cls-1{fill:#0081bd;}.cls-2{fill:#8fa5a5;}.cls-3{fill:#009ae0;}</style></defs><title>Headset</title><g id="Headset"><path class="cls-1" d="M27,16a1,1,0,0,1-1-1V14A10,10,0,0,0,6,14v1a1,1,0,0,1-2,0V14a12,12,0,0,1,24,0v1A1,1,0,0,1,27,16Z"/><path class="cls-2" d="M24,28H21a1,1,0,0,1,0-2h3a2,2,0,0,0,2-2,1,1,0,0,1,2,0A4,4,0,0,1,24,28Z"/><path class="cls-1" d="M19,30H17a3,3,0,0,1,0-6h2a3,3,0,0,1,0,6Z"/><path class="cls-3" d="M26,25H25a2,2,0,0,1-2-2V16a2,2,0,0,1,2-2h1a4,4,0,0,1,4,4v3A4,4,0,0,1,26,25Z"/><path class="cls-3" d="M7,25H6a4,4,0,0,1-4-4V18a4,4,0,0,1,4-4H7a2,2,0,0,1,2,2v7A2,2,0,0,1,7,25Z"/></g></svg>